{
	"asset":{
		"generator":"Khronos glTF Blender I/O v4.3.47",
		"version":"2.0"
	},
	"scene":0,
	"scenes":[
		{
			"name":"Scene",
			"nodes":[
				0
			]
		}
	],
	"nodes":[
		{
			"mesh":0,
			"name":"\u68f1\u89d2\u7403"
		}
	],
	"materials":[
		{
			"name":"\u77f3\u82f1-\u7d2b\u6c34\u6676",
			"pbrMetallicRoughness":{
				"metallicFactor":0,
				"roughnessFactor":0
			}
		}
	],
	"meshes":[
		{
			"name":"\u68f1\u89d2\u7403",
			"primitives":[
				{
					"attributes":{
						"POSITION":0,
						"NORMAL":1,
						"TEXCOORD_0":2
					},
					"indices":3,
					"material":0
				}
			]
		}
	],
	"accessors":[
		{
			"bufferView":0,
			"componentType":5126,
			"count":10749,
			"max":[
				1,
				0.9835997819900513,
				0.9999999403953552
			],
			"min":[
				-0.9999999403953552,
				-0.983599841594696,
				-0.9999999403953552
			],
			"type":"VEC3"
		},
		{
			"bufferView":1,
			"componentType":5126,
			"count":10749,
			"type":"VEC3"
		},
		{
			"bufferView":2,
			"componentType":5126,
			"count":10749,
			"type":"VEC2"
		},
		{
			"bufferView":3,
			"componentType":5123,
			"count":61392,
			"type":"SCALAR"
		}
	],
	"bufferViews":[
		{
			"buffer":0,
			"byteLength":128988,
			"byteOffset":0,
			"target":34962
		},
		{
			"buffer":0,
			"byteLength":128988,
			"byteOffset":128988,
			"target":34962
		},
		{
			"buffer":0,
			"byteLength":85992,
			"byteOffset":257976,
			"target":34962
		},
		{
			"buffer":0,
			"byteLength":122784,
			"byteOffset":343968,
			"target":34963
		}
	],
	"buffers":[
		{
			"byteLength":466752,
			"uri":"Amethyst.bin"
		}
	]
}
